<?xml version="1.0"?><svg width="640" height="480" xmlns="http://www.w3.org/2000/svg">
 <g>
  <path d="m432,80.997002c0,-17.119003 -80.588989,-30.997002 -180,-30.997002s-180,13.877998 -180,30.997002c0,0.375 0.053001,0.747002 0.128998,1.118996c-0.077995,0.566002 -0.128998,1.146004 -0.128998,1.756004c0,16.101997 0,24.050995 0,31.024002c0,6.061996 10.113998,11.715996 27.581001,16.493004c3.350998,18.722992 20.418999,112.742996 20.418999,265.725983c0,17.058014 59.098999,30.88501 132,30.88501s132,-13.826996 132,-30.88501c0,0 2.072998,-204.185989 16.998993,-264.824005c19.563995,-4.959991 31.001007,-10.947998 31.001007,-17.395996c0,-6.986 0,-13.459999 0,-30.145996c0,-0.786003 -0.087006,-1.523003 -0.21701,-2.237c0.141022,-0.501991 0.21701,-1.006996 0.21701,-1.514992z" id="Base_2_"/>
  <linearGradient y2="0.500003" x2="0.999997" y1="0.500003" x1="-0.000001" id="Color_2_">
   <stop stop-color="#D0411D" offset="0"/>
   <stop stop-color="#F15A22" offset="0.3804"/>
   <stop stop-color="#EE2724" offset="0.908"/>
  </linearGradient>
  <path d="m424.626007,82.103996c0,-16.250999 -77.363983,-29.426994 -172.794998,-29.426994c-95.434006,0 -172.796997,13.174995 -172.796997,29.426994c0,0.355003 0.050995,0.709007 0.124001,1.062004c-0.075005,0.538002 -0.124001,1.087997 -0.124001,1.667c0,15.286003 0,22.833 0,29.452003c0,5.754997 9.709999,11.122993 26.477997,15.656998c3.076004,17 19.602005,116.632004 19.602005,262.673996c0,16.194 56.733002,29.320007 126.718002,29.320007c69.98201,0 126.716019,-13.126007 126.716019,-29.320007c0,0 1.98999,-204.250992 16.319,-261.817993c18.779999,-4.707993 29.759979,-10.392998 29.759979,-16.513992c0,-6.632004 0,-12.778 0,-28.618004c0,-0.747002 -0.083984,-1.445999 -0.207001,-2.125c0.132996,-0.475006 0.205994,-0.95401 0.205994,-1.437012z" fill="#ffffff" id="Color_3_"/>
  <g id="Highlights">
   <linearGradient y2="0.510178" x2="0.906989" y1="0.510178" x1="0.081841" id="SVGID_1_">
    <stop stop-color="#FFFFFF" offset="0"/>
    <stop stop-color="#FFFFFF" offset="1"/>
   </linearGradient>
   <path d="m195,102c0,0 28,2 46,0s11,12 1,12s-16,1 -15,7s1,9 -2,12s0,2 6,4s4,8 -10,7s-21,-7 -11,-8s12,-3 8,-7s-1,-5 1,-11s-3,-6 -13,-7s-21,-7 -11,-9z" fill="url(#SVGID_1_)"/>
   <linearGradient y2="0.497786" x2="1" y1="0.497786" x1="0" id="SVGID_2_">
    <stop stop-color="#FFFFFF" offset="0"/>
    <stop stop-color="#FFFFFF" offset="1"/>
   </linearGradient>
   <path d="m197,169c0,0 32.5,3.5 57,2c0,35 -6,182 -6,211c0,22 2,32 -10,33c-16.970993,1.414001 -18,-2 -24,-8s4,0 8,-29s-22,-109 -16,-149s4,-52 -9,-60z" fill="url(#SVGID_2_)"/>
   <linearGradient y2="0.5" x2="1" y1="0.5" x1="0" id="SVGID_3_">
    <stop stop-color="#FFFFFF" offset="0"/>
    <stop stop-color="#FFFFFF" offset="1"/>
   </linearGradient>
   <path d="m248,382c0,23 0,33 -10,33" fill="url(#SVGID_3_)"/>
  </g>
  <g id="Shadows">
   <linearGradient y2="0.500004" x2="1" y1="0.500004" x1="0" id="SVGID_4_">
    <stop stop-color="#000000" stop-opacity="0.8" offset="0"/>
    <stop stop-color="#000000" offset="1"/>
   </linearGradient>
   <path d="m384.666992,230.332993c0,0 -3.5,81.332993 -3.666992,92.667007c-10.666016,12.666992 -26.666016,30.000977 -50.333008,43.333984c-16.666992,-4.666992 -22.334015,-10 -61.666992,-13.666992c18.334015,-14.332977 24,-18.666992 24,-18.666992s20.334015,3.666992 36.666992,15.666992c14.667023,-10.332977 44.667023,-50.666992 55,-119.334z" fill="url(#SVGID_4_)"/>
  </g>
  <g id="Rim">
   <path d="m80.5,120c0,0 154.5,61 336.501007,3.333c1,2.5 1.5,3.5 1.5,3.5s-158.834015,66.834007 -338.001007,-2.833c0.5,-3 0,-4 0,-4z"/>
  </g>
  <g id="Handle">
   <path d="m93.458,127.362c0,0 -37.639999,171.161987 5.275002,218.203979c59.556,0 178.667023,16 178.667023,16s130.209991,-34.375 138.09198,-236.746979c-2.627014,-12.427002 -24.597992,-21.181999 -33.355011,-2.542c0,23.965004 -9.86499,150.000008 -106.475006,198.306007c-35.90799,0 -152.908974,-15.632996 -152.908974,-15.632996s-21.668007,-5.554016 -8.956001,-113.181015c-4.784004,0 -11.863998,0 -17.796005,0c-7.008011,-15.089005 19.498993,-67.268997 -2.543007,-64.406998z"/>
  </g>
  <g id="Lid">
   <path d="m96,81c0,13.061996 66,17 156,17s156,-3.749001 156,-18s-61,-15 -61,-15s24,17.333 14,24c-25,7 -201.332993,4.667 -230,-1c-3,-7 -9,-16 3,-21c-14,3.75 -38,3.061996 -38,14z"/>
  </g>
  <g id="Layer_8">
   <linearGradient y2="0" x2="0.499998" y1="0" x1="0.499998" id="SVGID_5_">
    <stop stop-color="#000000" stop-opacity="0.87" offset="0.1656"/>
    <stop stop-color="#000000" stop-opacity="0.25" offset="1"/>
   </linearGradient>
   <path d="m106,133c0,0 64.332993,23.334 145,22.667007s130,-16.667007 130,-16.667007s-0.665985,6.667007 -1.665985,14c-15.667023,5.332993 -78.334015,18 -128.001022,18s-75.333008,-1.332993 -143,-21c-0.666992,-4.667007 -2.332993,-17 -2.332993,-17z" fill="url(#SVGID_5_)"/>
   <linearGradient y2="Infinity" x2="Infinity" y1="Infinity" x1="Infinity" id="SVGID_6_">
    <stop stop-color="#000000" stop-opacity="0.35" offset="0"/>
    <stop stop-color="#000000" stop-opacity="0.35" offset="1"/>
   </linearGradient>
   <path d="m457.5,150.5" fill="url(#SVGID_6_)"/>
  </g>
  <title>Layer 1</title>
  <g id="Color_1_">
   <g id="Handle_1_">
    <path d="m101,133.5c-3,-2 0,-0.5 -3.333,-2.5c0,0 -38.108002,165.651001 3.417,210.565979c57.626999,0 172.880997,16 172.880997,16s128.813019,-36.981964 136.440002,-230.202988c-1.694,-5.932999 -16.10199,-18.644005 -24.575989,-0.848c0,22.881004 -3.389008,144.067986 -111.016998,199.999992c-34.746017,0 -153.390015,-16 -153.390015,-16s-25.755997,-10.182983 -13.755997,-120.181992c-0.965004,-7.72699 -4.510002,-45.943985 -6.666,-56.832993z" fill="#FFFFFF"/>
   </g>
  </g>
  <g display="none" id="Guide"/>
 </g>
</svg>