<?xml version="1.0"?><svg width="640" height="480" xmlns="http://www.w3.org/2000/svg" xmlns:xlink="http://www.w3.org/1999/xlink">
 <title>Fish</title>
 <defs>
  <linearGradient id="linearGradient48">
   <stop id="stop49" offset="0" stop-color="#006aff"/>
   <stop id="stop50" offset="1" stop-color="#b5ffff"/>
  </linearGradient>
  <linearGradient id="linearGradient51" x1="0" x2="1" xlink:href="#linearGradient48" y1="0" y2="0"/>
  <linearGradient y2="1" x2="1" y1="0" x1="0" id="svg_19">
   <stop stop-color="#ff0000" offset="0"/>
   <stop stop-color="#ff6600" offset="1"/>
  </linearGradient>
  <linearGradient y2="1" x2="1" y1="0" x1="0" id="svg_20">
   <stop stop-color="#e8f9f9" offset="0"/>
   <stop stop-color="#2a19aa" offset="1"/>
  </linearGradient>
  <linearGradient y2="1" x2="1" y1="0" x1="0" id="svg_21">
   <stop stop-color="#039e03" offset="0"/>
   <stop stop-color="#7fff00" offset="1"/>
  </linearGradient>
  <linearGradient y2="1" x2="1" y1="0" x1="0" id="svg_22">
   <stop stop-color="#007567" offset="0"/>
   <stop stop-color="#04e27b" offset="1"/>
  </linearGradient>
  <linearGradient y2="1" x2="1" y1="0" x1="0" id="svg_24">
   <stop stop-color="#ff0000" offset="0"/>
   <stop stop-color="#ff7f00" offset="1"/>
  </linearGradient>
 </defs>
 <g>
  <title>Layer 1</title>
  <path d="m343.105988,11.37375c22.141327,51.385951 -10.582397,69.600913 90.714325,119.244155c-86.525024,41.815491 -122.346222,20.913589 -132.03772,15.400391c-10.013885,-17.147491 15.731415,-108.887486 41.323395,-134.644546z" id="path633" stroke-width="6.53897" fill-rule="evenodd" fill="#000000"/>
  <path d="m259.395386,296.564209c89.310211,-13.238922 125.141602,-72.166916 141.715607,-94.810303c-48.493103,45.878891 -108.484283,46.628296 -135.091095,24.915787c0.134613,42.819595 26.400909,-20.463196 -6.624512,69.894516z" id="path636" stroke-linejoin="bevel" stroke-width="7.907096" fill-rule="evenodd" fill="#000000"/>
  <path d="m125.25,139.584595c22.660706,-55.036835 40.511597,-100.261326 69.266098,-95.320274c-24.519394,40.354782 -18.252899,61.00798 1.4207,91.137581c-19.939102,0.062393 -56.5569,2.318893 -70.686798,4.182693z" id="path634" stroke-linejoin="bevel" stroke-width="7.907093" fill-rule="evenodd" fill="#000000"/>
  <path d="m335.884094,154.427505c-34.327484,-21.384613 -18.798981,-37.247803 -32.196991,-52.872505c-45.066498,11.776398 -72.960205,23.264099 -109.645004,27.714806c-78.873199,5.51149 -93.481102,27.809601 -108.039207,42.758591c-34.56023,41.466904 -69.347891,164.000198 -30.512531,225.739517c45.162441,9.198395 118.750637,16.272583 170.840435,-38.598907c14.789108,-18.361603 38.995193,-54.182098 44.116501,-95.041016c10.29541,-61.416397 49.120911,-91.03389 65.436798,-109.700485z" id="path580" stroke-width="9.926516" stroke="#000000" fill-rule="evenodd" fill="url(#linearGradient51)"/>
  <path d="m328.2948,155.038101c-9.132385,-6.1828 -14.23349,-14.510208 -19.60199,-22.767197c-45.066498,11.776291 -156.926514,82.235397 -212.749207,161.66571c-17.238617,-16.392029 -33.193394,-35.595123 -47.751453,-20.645905c-2.933311,22.914703 -19.40885,63.880188 6.724251,119.848694c94.698193,5.213104 94.983593,8.746002 155.049892,-57.44101c24.656601,-27.169098 48.200912,-17.447083 59.416916,-77.494781c10.858704,-61.278915 42.595795,-84.498917 58.911591,-103.165512z" id="path637" stroke-width="7.907097" fill-rule="evenodd" fill="#7fff00"/>
  <path d="m85.489998,195.891998c-10.824501,18.859009 -33.490898,54.574997 -28.3713,72.177002c11.878502,-0.872986 21.925003,5.252991 26.792305,14.481995c-5.317101,-52.75499 63.034996,-119.139999 149.946999,-156.855995c-70.005997,10.653999 -128.396004,39.293999 -148.368004,70.196999l0,0z" id="path596" fill-rule="evenodd" fill="#7f003f"/>
  <path d="m347.598114,243.527893c-8.670807,11.566101 -74.639221,42.598602 -73.927612,30.685394c4.568787,7.640411 7.493103,-4.670593 6.788605,-19.88118c10.755188,2.192001 50.457794,-6.024612 67.139008,-10.804214z" id="path619" fill="#7f0000"/>
  <path d="m349.673309,141.761597c-18.389496,-30.683998 -11.937408,-48.285637 -27.555023,-68.729919c-7.425873,20.113762 -16.088196,53.487625 27.555023,68.729919z" id="path595" fill-rule="evenodd" fill="#7f0000"/>
  <path d="m213.037094,303.40509c-13.806992,21.603302 -34.0466,51.257721 -61.714996,63.173615c-23.037598,9.921509 -76.6371,12.17099 -105.079357,5.2677c3.846298,19.47171 3.893261,11.797699 8.76202,21.872803c37.136238,5.350983 123.705734,22.054993 170.169846,-40.582123c25.456589,-33.519989 37.345901,-48.501373 53.875809,-136.483582c-28.595917,6.593597 -42.65271,53.736084 -66.013321,86.751587z" id="path639" stroke-width="7.907097" fill-rule="evenodd" fill="#aaffff"/>
  <path d="m170.135803,69.57093c-9.752609,10.395401 -36.834702,63.295769 -26.392609,61.913277c6.8078,-1.913605 14.04361,-4.880104 27.453812,-4.815208c-2.446899,-12.096001 -4.459,-37.942551 -1.061203,-57.098068z" id="path641" fill="#7f0000"/>
  <path d="m92.867233,279.77179c-5.838631,-23.956894 17.956169,-63.354492 31.499664,-71.050293c21.210999,-14.015396 63.591003,-20.751099 70.0448,-7.97049c-4.741394,5.080292 -42.709991,38.490799 -52.073395,51.93219c-9.363098,13.440796 -30.291,10.306793 -49.471069,27.088593z" id="path622" fill="black"/>
  <path d="m158.511093,271.799194c12.478607,15.013214 9.87561,36.172516 -5.814194,47.26062c-15.689606,11.087677 -38.524803,7.905396 -51.003502,-7.108002c-12.4786,-15.013214 -9.875496,-36.172424 5.8144,-47.260406c15.689705,-11.087906 38.524796,-7.905609 51.003296,7.107788z" id="path593" stroke-width="7.098942" stroke="#000000" fill-rule="evenodd" fill="#ffffff"/>
  <path d="m145.295303,278.189606c4.440002,5.645691 3.179199,13.849304 -2.816498,18.322601c-5.995712,4.473389 -14.455399,3.523193 -18.895409,-2.122406c-4.439896,-5.645813 -3.178795,-13.849091 2.816803,-18.322601c5.995506,-4.473602 14.455299,-3.523102 18.895103,2.122406z" id="path587" fill-rule="evenodd"/>
  <path d="m231.459305,199.025208c-3.478806,12.23259 -2.853302,60.479095 -3.382004,77.164185c12.4702,-23.646896 25.945984,-53.016785 48.860596,-59.678192c7.137909,-30.436295 6.604095,-55.815506 33.4534,-86.703003c-31.945892,14.043808 -72.182892,48.922104 -78.931992,69.21701z" id="path642" fill-rule="evenodd" fill="#d4ffaa"/>
  <path d="m343.105988,11.37375c22.141327,51.385951 -10.582397,69.600913 90.714325,119.244155c-86.525024,41.815491 -122.346222,20.913589 -132.03772,15.400391c-10.013885,-17.147491 15.731415,-108.887486 41.323395,-134.644546z" stroke-width="6.53897" fill-rule="evenodd" fill="#000000" id="svg_1"/>
  <path d="m259.395386,296.564209c89.310211,-13.238922 125.141602,-72.166916 141.715607,-94.810303c-48.493103,45.878891 -108.484283,46.628296 -135.091095,24.915787c0.134613,42.819595 26.400909,-20.463196 -6.624512,69.894516z" stroke-linejoin="bevel" stroke-width="7.907096" fill-rule="evenodd" fill="#000000" id="svg_2"/>
  <path d="m125.25,139.584595c22.660706,-55.036835 40.511597,-100.261326 69.266098,-95.320274c-24.519394,40.354782 -18.252899,61.00798 1.4207,91.137581c-19.939102,0.062393 -56.5569,2.318893 -70.686798,4.182693z" stroke-linejoin="bevel" stroke-width="7.907093" fill-rule="evenodd" fill="#000000" id="svg_3"/>
  <path d="m335.884094,154.427505c-34.327484,-21.384613 -18.798981,-37.247803 -32.196991,-52.872505c-45.066498,11.776398 -78.960205,19.264091 -109.645004,27.714806c-78.873199,5.51149 -93.481102,27.809601 -108.039207,42.758591c-34.56023,41.466904 -69.347891,164.000198 -30.512531,225.739517c45.162441,9.198395 118.750637,16.272583 170.840435,-38.598907c14.789108,-18.361603 38.995193,-54.182098 44.116501,-95.041016c10.29541,-61.416397 49.120911,-91.03389 65.436798,-109.700485z" stroke-width="9.926516" stroke="#000000" fill-rule="evenodd" fill="url(#svg_22)" id="svg_4"/>
  <path d="m328.2948,155.038101c-9.132385,-6.1828 -14.23349,-14.510208 -19.60199,-22.767197c-45.066498,11.776291 -156.926514,82.235397 -212.749207,161.66571c-17.238617,-16.392029 -33.193394,-35.595123 -47.751453,-20.645905c-2.933311,22.914703 -19.40885,63.880188 6.724251,119.848694c94.698193,5.213104 94.983593,8.746002 155.049892,-57.44101c24.656601,-27.169098 48.200912,-17.447083 59.416916,-77.494781c10.858704,-61.278915 42.595795,-84.498917 58.911591,-103.165512z" stroke-width="7.907097" fill-rule="evenodd" fill="url(#svg_21)" id="svg_5"/>
  <path stroke="url(#svg_24)" d="m85.489998,195.891998c-10.824501,18.859009 -33.490898,54.574997 -28.3713,72.177002c11.878502,-0.872986 21.925003,5.252991 26.792305,14.481995c-5.317101,-52.75499 63.034996,-119.139999 149.946999,-156.855995c-70.005997,10.653999 -128.396004,39.293999 -148.368004,70.196999l0,0z" fill-rule="evenodd" fill="url(#svg_19)" id="svg_6"/>
  <path d="m347.598114,243.527893c-8.670807,11.566101 -74.639221,42.598602 -73.927612,30.685394c4.568787,7.640411 7.493103,-4.670593 6.788605,-19.88118c10.755188,2.192001 50.457794,-6.024612 67.139008,-10.804214z" fill="#443636" id="svg_7"/>
  <path d="m349.673309,141.761597c-18.389496,-30.683998 -11.937408,-48.285637 -27.555023,-68.729919c-7.425873,20.113762 -16.088196,53.487625 27.555023,68.729919z" fill-rule="evenodd" fill="#353131" id="svg_8"/>
  <path d="m213.037094,303.40509c-13.806992,21.603302 -34.0466,51.257721 -61.714996,63.173615c-23.037598,9.921509 -76.6371,12.17099 -105.079357,5.2677c3.846298,19.47171 3.893261,11.797699 8.76202,21.872803c37.136238,5.350983 123.705734,22.054993 170.169846,-40.582123c25.456589,-33.519989 37.345901,-48.501373 53.875809,-136.483582c-28.595917,6.593597 -42.65271,53.736084 -66.013321,86.751587z" stroke-width="7.907097" fill-rule="evenodd" fill="url(#svg_20)" id="svg_9"/>
  <path d="m170.135803,69.57093c-9.752609,10.395401 -36.834702,63.295769 -26.392609,61.913277c6.8078,-1.913605 14.04361,-4.880104 27.453812,-4.815208c-2.446899,-12.096001 -4.459,-37.942551 -1.061203,-57.098068z" fill="#776c62" id="svg_10"/>
  <path d="m92.867233,279.77179c-5.838631,-23.956894 17.956169,-63.354492 31.499664,-71.050293c21.210999,-14.015396 63.591003,-20.751099 70.0448,-7.97049c-4.741394,5.080292 -42.709991,38.490799 -52.073395,51.93219c-9.363098,13.440796 -30.291,10.306793 -49.471069,27.088593z" fill="black" id="svg_11"/>
  <path d="m158.511093,271.799194c12.478607,15.013214 9.87561,36.172516 -5.814194,47.26062c-15.689606,11.087677 -38.524803,7.905396 -51.003502,-7.108002c-12.4786,-15.013214 -9.875496,-36.172424 5.8144,-47.260406c15.689705,-11.087906 38.524796,-7.905609 51.003296,7.107788z" stroke-width="7.098942" stroke="#000000" fill-rule="evenodd" fill="#ffffff" id="svg_12"/>
  <path d="m145.295303,278.189606c4.440002,5.645691 3.179199,13.849304 -2.816498,18.322601c-5.995712,4.473389 -14.455399,3.523193 -18.895409,-2.122406c-4.439896,-5.645813 -3.178795,-13.849091 2.816803,-18.322601c5.995506,-4.473602 14.455299,-3.523102 18.895103,2.122406z" fill-rule="evenodd" id="svg_13"/>
  <path d="m231.459305,199.025208c-3.478806,12.23259 -2.853302,60.479095 -3.382004,77.164185c12.4702,-23.646896 25.945984,-53.016785 48.860596,-59.678192c7.137909,-30.436295 6.604095,-55.815506 33.4534,-86.703003c-31.945892,14.043808 -72.182892,48.922104 -78.931992,69.21701z" fill-rule="evenodd" fill="#149e14" id="svg_14"/>
 </g>
</svg>