<?xml version="1.0" encoding="utf-8"?>
<!-- Generator: Adobe Illustrator 19.1.1, SVG Export Plug-In . SVG Version: 6.00 Build 0)  -->
<svg version="1.1"  xmlns="http://www.w3.org/2000/svg" xmlns:xlink="http://www.w3.org/1999/xlink" x="0px" y="0px"
	 viewBox="0 0 48 48" enable-background="new 0 0 48 48" xml:space="preserve">
<path fill="#FFB74D" d="M11,17c2.2,0,4,1.8,4,4c0,2.2-1.8,4-4,4s-4-1.8-4-4C7,18.8,8.8,17,11,17"/>
<path fill="#1976D2" d="M37,43c-0.5,0-0.9-0.2-1.3-0.5L30.3,38H23c-1.1,0-2-0.9-2-2s0.9-2,2-2h8c0.5,0,0.9,0.2,1.3,0.5l6,5
	c0.8,0.7,1,2,0.3,2.8C38.1,42.8,37.6,43,37,43z"/>
<path fill="#2196F3" d="M40,32.3l-7-4c-0.6-0.3-1.4-0.4-2,0l-7,2.9L19.1,27l2.2-0.6c0.3-0.1,0.5-0.2,0.7-0.4l4.5-4.5
	c0.6-0.6,0.6-1.5,0-2.1c-0.6-0.6-1.5-0.6-2.1,0l-4.2,4.2L14.7,25c-0.1,0-0.2,0.1-0.3,0.1c-0.5,0.2-1,0.4-1.4,0.8
	c-1.4,1.4-1.4,3.6,0,4.9l7,6c0.7,0.7,1.6,1,2.5,1s1.8-0.3,2.5-1l7-4.7l6,3.4c1,0.5,2.2,0.2,2.7-0.7C41.3,34,41,32.8,40,32.3z"/>
<path fill="#455A64" d="M25,14v5.1c-0.2,0.1-0.4,0.2-0.6,0.3L23,20.9V14H25z M23,28.8l-5.9,5.7l1.5,1.3l4.4-4.2V38h2V23.1l-2,2V28.8
	z"/>
<path fill="#90A4AE" d="M29,8c0,1.1-0.9,2-2,2s-2-0.9-2-2s0.9-2,2-2S29,6.9,29,8z M23,7c0,1.1-0.9,2-2,2s-2-0.9-2-2s0.9-2,2-2
	S23,5.9,23,7z M28,11h-2c0,1.1-0.9,2-2,2c-1.1,0-2-0.9-2-2v-1h-2v1c0,2.2,1.8,4,4,4C26.2,15,28,13.2,28,11z"/>
<rect x="6.6" y="9.5" transform="matrix(0.9789 0.2044 -0.2044 0.9789 2.6634 -4.6832)" fill="#37474F" width="34.7" height="2"/>
</svg>
